# xmcd CD database file
#
# Track frame offsets:
#	150
#	80994
#	171598
#	231179
#
# Disc length: 4198 seconds
#
# Revision: 0
# Processed by: cddbd v1.5.2PL0 Copyright (c) Steve Scherf et al.
# Submitted via: CDex 1.51
#
DISCID=33106404
DTITLE=AMM and John Butcher - Trinity
DYEAR=2008
DGENRE=Jazz
TTITLE0=Meantime
TTITLE1=One Tree Hill
TTITLE2=Flamsteed
TTITLE3=Conduit
EXTD=YEAR: 2008
EXTT0=
EXTT1=
EXTT2=
EXTT3=
PLAYORDER=
